<?xml version="1.0" standalone="no"?>
<!DOCTYPE svg PUBLIC "-//W3C//DTD SVG 20010904//EN"
 "http://www.w3.org/TR/2001/REC-SVG-20010904/DTD/svg10.dtd">
<svg version="1.0" xmlns="http://www.w3.org/2000/svg"
 width="1505.000000pt" height="1505.000000pt" viewBox="0 0 1505.000000 1505.000000"
 preserveAspectRatio="xMidYMid meet">
<metadata>
Created by potrace 1.14, written by Peter Selinger 2001-2017
</metadata>
<g transform="translate(0.000000,1505.000000) scale(0.100000,-0.100000)"
fill="#000000" stroke="none">
<path d="M6428 13055 c-2 -2 -28 -6 -58 -10 -124 -15 -317 -65 -425 -110 -77
-32 -170 -79 -173 -87 -2 -4 -8 -8 -13 -8 -12 0 -78 -43 -154 -99 -91 -68
-182 -163 -280 -291 -298 -388 -592 -637 -960 -814 -142 -68 -390 -258 -554
-425 -206 -211 -326 -432 -358 -661 -9 -68 -10 -255 0 -332 l7 -58 -38 -1
c-56 -1 -62 -3 -149 -54 -45 -26 -101 -51 -125 -57 -24 -5 -51 -12 -60 -14
-10 -2 -26 -6 -35 -8 -139 -31 -320 -107 -593 -248 -262 -136 -427 -218 -480
-238 -181 -70 -345 -282 -388 -500 -12 -64 -3 -333 13 -359 1 -4 6 -53 9 -110
4 -58 9 -107 10 -110 2 -3 6 -44 10 -91 4 -47 9 -103 11 -125 3 -22 7 -60 10
-85 3 -25 8 -62 11 -83 7 -44 10 -64 19 -137 4 -30 10 -59 12 -63 3 -5 7 -23
10 -40 31 -218 146 -513 271 -702 99 -149 272 -319 414 -408 35 -22 46 -34 43
-50 -2 -12 -6 -49 -10 -82 -8 -80 -15 -143 -20 -185 -2 -19 -7 -71 -10 -115
-3 -44 -7 -98 -10 -120 -2 -22 -7 -85 -10 -140 -3 -55 -8 -129 -10 -165 -16
-256 -24 -743 -14 -868 42 -518 262 -854 794 -1212 82 -55 112 -82 160 -146
32 -44 63 -83 67 -89 5 -5 17 -21 28 -34 11 -13 20 -27 20 -30 0 -3 14 -21 30
-40 26 -29 112 -156 232 -341 20 -30 50 -73 67 -95 17 -22 34 -45 38 -50 151
-201 533 -542 815 -728 344 -227 747 -278 1223 -157 120 30 280 84 475 159 96
38 195 76 220 85 100 37 193 130 278 280 28 49 53 93 54 97 2 5 12 10 23 11
11 2 36 16 56 30 89 69 189 87 271 49 26 -11 73 -45 105 -74 32 -29 77 -71
101 -92 117 -106 241 -179 354 -208 59 -15 129 -63 217 -147 9 -8 56 -44 105
-79 99 -72 211 -130 301 -157 91 -27 279 -25 490 6 39 6 88 13 110 16 22 3 70
12 107 20 37 7 82 16 100 19 18 4 53 11 78 16 25 6 52 12 61 14 48 10 249 69
359 105 450 149 1043 458 1257 654 125 115 233 323 257 496 2 19 8 58 11 85 4
28 8 61 10 75 8 51 45 276 50 300 3 14 8 36 10 50 7 44 26 141 60 315 19 94
36 181 39 195 12 66 20 73 132 118 60 24 128 52 151 63 24 10 45 19 48 19 17
0 242 120 311 165 142 95 308 278 525 582 200 280 426 688 544 978 26 66 54
134 61 150 59 138 208 630 238 790 3 17 13 64 21 105 46 224 53 287 50 430 -6
250 -85 438 -256 609 -57 56 -183 156 -234 185 -16 9 -46 26 -65 37 -19 12
-64 37 -100 57 -263 143 -385 250 -459 398 l-29 59 34 102 c62 184 88 344 88
538 0 87 -10 239 -19 285 -63 332 -157 593 -349 964 -165 320 -252 445 -415
599 -193 182 -484 340 -701 382 -13 2 -37 9 -54 14 -17 6 -53 13 -81 16 -27 3
-77 10 -110 15 -59 9 -420 6 -460 -3 -11 -3 -45 -8 -75 -12 -30 -4 -86 -14
-125 -22 -38 -8 -79 -16 -89 -18 -59 -13 -266 -78 -331 -105 -138 -56 -196
-82 -285 -127 -58 -29 -109 -53 -115 -53 -14 0 -88 72 -175 170 -269 307 -392
387 -620 405 -124 10 -166 18 -277 51 -197 59 -340 148 -563 354 -135 124
-398 261 -586 305 -10 2 -38 9 -61 15 -23 5 -61 12 -85 15 -24 3 -54 8 -68 11
-24 6 -367 14 -372 9z m-378 -2372 c0 -16 -49 -87 -50 -73 0 8 -3 25 -6 37 -5
18 -1 25 17 32 30 12 39 13 39 4z m4836 -1721 c17 -12 44 -56 44 -72 0 -11
-18 -22 -50 -32 -27 -9 -50 -13 -50 -8 0 4 7 26 15 49 15 42 15 44 15 61 0 12
11 13 26 2z"/>
</g>
</svg>
